<?xml version="1.0" encoding="UTF-8"?>
<!DOCTYPE svg PUBLIC "-//W3C//DTD SVG 1.1//EN" "http://www.w3.org/Graphics/SVG/1.1/DTD/svg11.dtd">
<!-- Creator: CorelDRAW -->
<svg xmlns="http://www.w3.org/2000/svg" xml:space="preserve" width="1.29018in" height="0.416677in" style="shape-rendering:geometricPrecision; text-rendering:geometricPrecision; image-rendering:optimizeQuality; fill-rule:evenodd; clip-rule:evenodd"
viewBox="0 0 2.77428 0.895982"
 xmlns:xlink="http://www.w3.org/1999/xlink">
 <defs>
  <style type="text/css">
   <![CDATA[
    .fil0 {fill:#1E75BA}
    .fil1 {fill:#4B4B4D}
   ]]>
  </style>
 </defs>
 <g id="Layer_x0020_1">
  <metadata id="CorelCorpID_0Corel-Layer"/>
  <g id="_216652128">
   <path id="_216653424" class="fil0" d="M0.00436833 0.344412l0.984745 -0.344074 0 -2.53973e-005c0.00285296,-0.00100742 0.00606148,0.000524877 0.00703504,0.0034117 0.000211644,0.000609534 0.000313233,0.00124447 0.000313233,0.0018286l0 0.8849c0,0.00303921 -0.00248893,0.00552814 -0.00552814,0.00552814l-0.000736521 -5.07945e-005 -0.984931 -0.047967c-0.00293762,-0.000160849 -0.0052403,-0.00259052 -0.0052403,-0.00552814l-2.53973e-005 0 0 -0.492597c0,-0.00264132 0.001854,-0.00486781 0.00436833,-0.00539269l0 -2.53973e-005 0 -8.46576e-006zm2.7699 0.523895l0 -0.433861 -0.0411351 0 -0.0897878 0.0503966 0.0115896 0.0359033 0.0724076 -0.0411097 0 0.38868 0.0469341 0 -8.46576e-006 -8.46576e-006zm-0.236855 -0.205058c-0.0121653,0.0815845 -0.0577534,0.156642 -0.142487,0.16857l-0.0446061 0.00288682 0 0.0399753c0.109284,0.00486781 0.192274,-0.0616138 0.222624,-0.16664 0.0282248,-0.0975678 0.0182014,-0.28119 -0.119494,-0.281114 -0.170348,7.61918e-005 -0.188549,0.284339 -0.0173802,0.28439 0.0406356,0 0.0751082,-0.0167453 0.0996335,-0.0480686l0.00171855 0 -8.46576e-006 0zm-0.0880439 -0.199258c0.0706383,0.000372493 0.0882809,0.0817961 0.0880439,0.139973 -0.000347096,0.0780712 -0.172253,0.118173 -0.172617,-0.0273275 -0.000135452,-0.0518528 0.0260068,-0.112247 0.0845814,-0.112645l-8.46576e-006 0zm-2.33743 -0.0248131c-0.0105145,-0.00301381 -0.0215369,0.00301381 -0.0245507,0.0135452 -0.00303921,0.010506 0.00301381,0.0215115 0.0135198,0.0245507l0.359761 0.104129 0.00804247 -0.00666255 0.358203 -0.295667c0.00844036,-0.00693345 0.00965943,-0.0194458 0.00270058,-0.0278862 -0.00693345,-0.00846576 -0.0194458,-0.00968482 -0.0278862,-0.00272597l-0.350161 0.289021 -0.339629 -0.0983044z"/>
   <path id="_216652512" class="fil1" d="M2.26762 0.640663l-0.136722 0 0 0.038807 0.0892037 0 0 0.141353c-0.0351075,0.0196829 -0.106745,0.0149505 -0.143359,0.000474082 -0.117327,-0.0463754 -0.126639,-0.231589 -0.0506845,-0.309711 0.0522252,-0.0537068 0.151063,-0.0620625 0.216639,-0.0302397l0.0127494 -0.0399499c-0.0563227,-0.0264301 -0.140294,-0.0237295 -0.195686,-0.001854 -0.167224,0.0660583 -0.16791,0.311514 -0.0503966,0.396409 0.0689451,0.0498379 0.181142,0.0452156 0.258256,0.0143918l0 -0.209688 0 8.46576e-006zm-0.39381 -0.199267c-0.0660329,-0.0423034 -0.225612,-0.0265571 -0.225316,0.095553 0.000237041,0.101614 0.110927,0.114178 0.158335,0.14937 0.0688605,0.0511416 0.0370631,0.170797 -0.0946302,0.144231 -0.0211136,-0.00425827 -0.0423796,-0.0122246 -0.0596582,-0.0236533l-0.0133336 0.0399753c0.0710869,0.0500834 0.251408,0.0416684 0.251408,-0.0961625 0,-0.147516 -0.193468,-0.11008 -0.193468,-0.22011 0,-0.0798913 0.111536,-0.0823041 0.162195,-0.0492876l0.014468 -0.0399245 0 8.46576e-006zm-0.310981 -0.0144934l-0.0602423 0c-0.0359795,0.100158 -0.0999213,0.265215 -0.126267,0.371884l-0.00174395 0c-0.0305529,-0.120239 -0.0814067,-0.253947 -0.12222,-0.371858l-0.059074 0 -0.0307138 0.441404 0.0457659 0 0.0208427 -0.388705 0.00174395 0c0.0291815,0.121797 0.0833369,0.267281 0.123973,0.386936l0.0353191 0c0.0452156,-0.126986 0.0952143,-0.258629 0.132675,-0.386936l0.00171855 0c-0.000660329,0.100421 0.0132574,0.293076 0.0185485,0.38868l0.0474844 0 -0.0278015 -0.441404 -8.46576e-006 0z"/>
  </g>
 </g>
</svg>
